<mxfile host="app.diagrams.net" modified="2021-11-12T09:19:19.791Z" agent="5.0 (Windows NT 6.3; Win64; x64) AppleWebKit/537.36 (KHTML, like Gecko) Chrome/95.0.4638.69 Safari/537.36" etag="3Hrizvf2VGylhSxiDZHd" version="15.7.3" type="github">
  <diagram id="_gNK52jvmiqzrKZyA9M5" name="Page-1">
    <mxGraphModel dx="868" dy="516" grid="1" gridSize="10" guides="1" tooltips="1" connect="1" arrows="1" fold="1" page="1" pageScale="1" pageWidth="827" pageHeight="1169" math="0" shadow="0">
      <root>
        <mxCell id="0" />
        <mxCell id="1" parent="0" />
        <mxCell id="hM2-x4GBXNu_3MTXXjZA-1" value="user&lt;br&gt;" style="shape=umlActor;verticalLabelPosition=bottom;verticalAlign=top;html=1;" parent="1" vertex="1">
          <mxGeometry x="120" y="395" width="30" height="60" as="geometry" />
        </mxCell>
        <mxCell id="hM2-x4GBXNu_3MTXXjZA-3" value="&#xa;Library System" style="swimlane;startSize=0;" parent="1" vertex="1">
          <mxGeometry x="199" y="170" width="430" height="510" as="geometry" />
        </mxCell>
        <mxCell id="hM2-x4GBXNu_3MTXXjZA-6" value="Log In" style="ellipse;whiteSpace=wrap;html=1;" parent="hM2-x4GBXNu_3MTXXjZA-3" vertex="1">
          <mxGeometry x="51" y="100" width="140" height="70" as="geometry" />
        </mxCell>
        <mxCell id="hM2-x4GBXNu_3MTXXjZA-7" value="Verify Password" style="ellipse;whiteSpace=wrap;html=1;" parent="hM2-x4GBXNu_3MTXXjZA-3" vertex="1">
          <mxGeometry x="261" y="50" width="99" height="60" as="geometry" />
        </mxCell>
        <mxCell id="hM2-x4GBXNu_3MTXXjZA-10" value="Display Login Error" style="ellipse;whiteSpace=wrap;html=1;" parent="hM2-x4GBXNu_3MTXXjZA-3" vertex="1">
          <mxGeometry x="261" y="150" width="99" height="60" as="geometry" />
        </mxCell>
        <mxCell id="hM2-x4GBXNu_3MTXXjZA-11" value="&amp;lt;&amp;lt;include&amp;gt;&amp;gt;" style="endArrow=open;endSize=12;dashed=1;html=1;rounded=0;entryX=0;entryY=0.5;entryDx=0;entryDy=0;exitX=0.971;exitY=0.271;exitDx=0;exitDy=0;exitPerimeter=0;" parent="hM2-x4GBXNu_3MTXXjZA-3" source="hM2-x4GBXNu_3MTXXjZA-6" target="hM2-x4GBXNu_3MTXXjZA-7" edge="1">
          <mxGeometry width="160" relative="1" as="geometry">
            <mxPoint x="135" y="120" as="sourcePoint" />
            <mxPoint x="295" y="120" as="targetPoint" />
            <mxPoint as="offset" />
          </mxGeometry>
        </mxCell>
        <mxCell id="hM2-x4GBXNu_3MTXXjZA-12" value="&amp;lt;&amp;lt;extend&amp;gt;&amp;gt;" style="endArrow=open;endSize=12;dashed=1;html=1;rounded=0;exitX=0;exitY=0.5;exitDx=0;exitDy=0;entryX=0.929;entryY=0.714;entryDx=0;entryDy=0;entryPerimeter=0;" parent="hM2-x4GBXNu_3MTXXjZA-3" source="hM2-x4GBXNu_3MTXXjZA-10" target="hM2-x4GBXNu_3MTXXjZA-6" edge="1">
          <mxGeometry width="160" relative="1" as="geometry">
            <mxPoint x="131" y="220" as="sourcePoint" />
            <mxPoint x="291" y="220" as="targetPoint" />
          </mxGeometry>
        </mxCell>
        <mxCell id="hM2-x4GBXNu_3MTXXjZA-13" value="Give Back the Book" style="ellipse;whiteSpace=wrap;html=1;" parent="hM2-x4GBXNu_3MTXXjZA-3" vertex="1">
          <mxGeometry x="51" y="210" width="140" height="70" as="geometry" />
        </mxCell>
        <mxCell id="hM2-x4GBXNu_3MTXXjZA-14" value="Check Out a Book" style="ellipse;whiteSpace=wrap;html=1;" parent="hM2-x4GBXNu_3MTXXjZA-3" vertex="1">
          <mxGeometry x="51" y="320" width="140" height="70" as="geometry" />
        </mxCell>
        <mxCell id="hM2-x4GBXNu_3MTXXjZA-17" value="" style="edgeStyle=orthogonalEdgeStyle;rounded=0;orthogonalLoop=1;jettySize=auto;html=1;" parent="hM2-x4GBXNu_3MTXXjZA-3" source="hM2-x4GBXNu_3MTXXjZA-15" target="hM2-x4GBXNu_3MTXXjZA-14" edge="1">
          <mxGeometry relative="1" as="geometry">
            <Array as="points">
              <mxPoint x="61" y="410" />
              <mxPoint x="121" y="410" />
            </Array>
          </mxGeometry>
        </mxCell>
        <mxCell id="hM2-x4GBXNu_3MTXXjZA-15" value="For Checking" style="ellipse;whiteSpace=wrap;html=1;" parent="hM2-x4GBXNu_3MTXXjZA-3" vertex="1">
          <mxGeometry x="11" y="420" width="100" height="60" as="geometry" />
        </mxCell>
        <mxCell id="hM2-x4GBXNu_3MTXXjZA-19" value="&lt;br&gt;" style="edgeStyle=orthogonalEdgeStyle;rounded=0;orthogonalLoop=1;jettySize=auto;html=1;" parent="hM2-x4GBXNu_3MTXXjZA-3" source="hM2-x4GBXNu_3MTXXjZA-16" target="hM2-x4GBXNu_3MTXXjZA-14" edge="1">
          <mxGeometry relative="1" as="geometry">
            <Array as="points">
              <mxPoint x="171" y="410" />
              <mxPoint x="121" y="410" />
            </Array>
          </mxGeometry>
        </mxCell>
        <mxCell id="hM2-x4GBXNu_3MTXXjZA-16" value="For Barrowing" style="ellipse;whiteSpace=wrap;html=1;" parent="hM2-x4GBXNu_3MTXXjZA-3" vertex="1">
          <mxGeometry x="121" y="420" width="99" height="60" as="geometry" />
        </mxCell>
        <mxCell id="hM2-x4GBXNu_3MTXXjZA-20" value="Verify Sufficient Credit For Barrowing" style="ellipse;whiteSpace=wrap;html=1;" parent="hM2-x4GBXNu_3MTXXjZA-3" vertex="1">
          <mxGeometry x="261" y="280" width="99" height="60" as="geometry" />
        </mxCell>
        <mxCell id="hM2-x4GBXNu_3MTXXjZA-21" value="&amp;lt;&amp;lt;include&amp;gt;&amp;gt;" style="endArrow=open;endSize=12;dashed=1;html=1;rounded=0;exitX=0.957;exitY=0.286;exitDx=0;exitDy=0;exitPerimeter=0;entryX=0;entryY=0.5;entryDx=0;entryDy=0;" parent="hM2-x4GBXNu_3MTXXjZA-3" source="hM2-x4GBXNu_3MTXXjZA-14" target="hM2-x4GBXNu_3MTXXjZA-20" edge="1">
          <mxGeometry width="160" relative="1" as="geometry">
            <mxPoint x="131" y="280" as="sourcePoint" />
            <mxPoint x="291" y="280" as="targetPoint" />
          </mxGeometry>
        </mxCell>
        <mxCell id="hM2-x4GBXNu_3MTXXjZA-29" value="" style="endArrow=none;html=1;rounded=0;entryX=0;entryY=0.5;entryDx=0;entryDy=0;" parent="1" target="hM2-x4GBXNu_3MTXXjZA-6" edge="1">
          <mxGeometry width="50" height="50" relative="1" as="geometry">
            <mxPoint x="150" y="425" as="sourcePoint" />
            <mxPoint x="440" y="420" as="targetPoint" />
            <Array as="points" />
          </mxGeometry>
        </mxCell>
        <mxCell id="hM2-x4GBXNu_3MTXXjZA-30" value="" style="endArrow=none;html=1;rounded=0;entryX=0;entryY=0.5;entryDx=0;entryDy=0;" parent="1" source="hM2-x4GBXNu_3MTXXjZA-1" target="hM2-x4GBXNu_3MTXXjZA-13" edge="1">
          <mxGeometry width="50" height="50" relative="1" as="geometry">
            <mxPoint x="390" y="470" as="sourcePoint" />
            <mxPoint x="440" y="420" as="targetPoint" />
          </mxGeometry>
        </mxCell>
        <mxCell id="hM2-x4GBXNu_3MTXXjZA-31" value="" style="endArrow=none;html=1;rounded=0;entryX=0;entryY=0.5;entryDx=0;entryDy=0;" parent="1" target="hM2-x4GBXNu_3MTXXjZA-14" edge="1">
          <mxGeometry width="50" height="50" relative="1" as="geometry">
            <mxPoint x="150" y="420" as="sourcePoint" />
            <mxPoint x="440" y="420" as="targetPoint" />
          </mxGeometry>
        </mxCell>
        <mxCell id="hM2-x4GBXNu_3MTXXjZA-32" value="Library" style="shape=umlActor;verticalLabelPosition=bottom;verticalAlign=top;html=1;outlineConnect=0;" parent="1" vertex="1">
          <mxGeometry x="690" y="395" width="30" height="60" as="geometry" />
        </mxCell>
        <mxCell id="hM2-x4GBXNu_3MTXXjZA-35" value="" style="endArrow=none;html=1;rounded=0;exitX=1;exitY=0.5;exitDx=0;exitDy=0;" parent="1" source="hM2-x4GBXNu_3MTXXjZA-13" edge="1">
          <mxGeometry width="50" height="50" relative="1" as="geometry">
            <mxPoint x="390" y="470" as="sourcePoint" />
            <mxPoint x="690" y="430" as="targetPoint" />
          </mxGeometry>
        </mxCell>
        <mxCell id="hM2-x4GBXNu_3MTXXjZA-36" value="" style="endArrow=none;html=1;rounded=0;exitX=1;exitY=0.5;exitDx=0;exitDy=0;" parent="1" source="hM2-x4GBXNu_3MTXXjZA-14" edge="1">
          <mxGeometry width="50" height="50" relative="1" as="geometry">
            <mxPoint x="390" y="470" as="sourcePoint" />
            <mxPoint x="690" y="430" as="targetPoint" />
            <Array as="points">
              <mxPoint x="560" y="520" />
            </Array>
          </mxGeometry>
        </mxCell>
      </root>
    </mxGraphModel>
  </diagram>
</mxfile>
